<svg version="1.1" id="Layer_1" xmlns="http://www.w3.org/2000/svg" xmlns:xlink="http://www.w3.org/1999/xlink" x="0px" y="0px"
	 width="20%"  height="30" viewBox="0 0 500 500" enable-background="new 0 0 500 500" xml:space="preserve">
<path fill="#050515" opacity="1.000000" stroke="none" 
	d="
M66.000000,501.000000 
	C56.979103,501.000000 47.958210,501.000000 38.468735,500.531342 
	C38.000107,333.708466 38.000053,167.354233 38.000000,1.000000 
	C47.020893,1.000000 56.041790,1.000000 65.531311,1.468657 
	C65.999954,168.291550 65.999977,334.645782 66.000000,501.000000 
z"/>
<path fill="#080820" opacity="1.000000" stroke="none" 
	d="
M66.468651,501.000000 
	C65.999977,334.645782 65.999954,168.291550 65.999969,1.468657 
	C74.020897,1.000000 82.041801,1.000000 90.531349,1.468657 
	C91.000000,168.291550 91.000000,334.645782 91.000000,501.000000 
	C82.979103,501.000000 74.958199,501.000000 66.468651,501.000000 
z"/>
<path fill="#03030A" opacity="1.000000" stroke="none" 
	d="
M37.531467,1.000000 
	C38.000053,167.354233 38.000107,333.708466 38.000080,500.531342 
	C31.312355,501.000000 24.624710,501.000000 17.468533,500.531342 
	C17.000000,333.708466 17.000000,167.354233 17.000000,1.000000 
	C23.687645,1.000000 30.375290,1.000000 37.531467,1.000000 
z"/>
<path fill="#2C2BAB" opacity="1.000000" stroke="none" 
	d="
M428.000000,501.000000 
	C421.645599,501.000000 415.291199,501.000000 408.468384,500.531342 
	C407.999969,432.789429 408.007751,365.516205 407.968903,298.242981 
	C407.967468,295.771790 408.992920,292.772583 405.272400,291.542664 
	C404.825806,291.394989 404.640076,288.197876 405.076813,287.992096 
	C408.970947,286.157562 407.978882,282.758545 407.979675,279.751007 
	C408.004517,186.834000 408.000000,93.917000 408.000000,1.000000 
	C414.021149,1.000000 420.042297,1.000000 426.531738,1.468657 
	C427.000000,165.166580 426.994446,328.395844 427.041687,491.625122 
	C427.042603,494.750183 427.666656,497.875031 428.000000,501.000000 
z"/>
<path fill="#302EBA" opacity="1.000000" stroke="none" 
	d="
M446.000000,1.000000 
	C452.021149,1.000000 458.042297,1.000000 464.531738,1.468657 
	C465.000000,168.291550 465.000000,334.645782 465.000000,501.000000 
	C458.978851,501.000000 452.957703,501.000000 446.468262,500.531342 
	C446.000000,333.708466 446.000000,167.354233 446.000000,1.000000 
z"/>
<path fill="#2E2CB3" opacity="1.000000" stroke="none" 
	d="
M445.531738,1.000000 
	C446.000000,167.354233 446.000000,333.708466 446.000000,500.531342 
	C440.311951,501.000000 434.623932,501.000000 428.467957,501.000000 
	C427.666656,497.875031 427.042603,494.750183 427.041687,491.625122 
	C426.994446,328.395844 427.000000,165.166580 427.000000,1.468657 
	C433.021149,1.000000 439.042297,1.000000 445.531738,1.000000 
z"/>
<path fill="#0F0E37" opacity="1.000000" stroke="none" 
	d="
M145.000000,501.000000 
	C139.311951,501.000000 133.623917,501.000000 127.467941,500.531342 
	C126.999992,433.788757 127.008339,367.514801 126.961754,301.240906 
	C126.960274,299.142792 126.535248,297.011780 126.052437,294.956055 
	C125.512329,292.656372 124.634781,290.438171 123.988785,288.160492 
	C123.285439,285.680664 122.679390,283.173248 121.975197,280.463379 
	C126.999191,279.010437 126.999878,279.010437 126.999893,271.757233 
	C127.000046,181.504822 127.000000,91.252411 127.000000,1.000000 
	C132.688034,1.000000 138.376083,1.000000 144.532059,1.468657 
	C145.000000,168.291550 145.000000,334.645782 145.000000,501.000000 
z"/>
<path fill="#3230C2" opacity="1.000000" stroke="none" 
	d="
M465.467957,501.000000 
	C465.000000,334.645782 465.000000,168.291550 465.000000,1.468657 
	C470.688049,1.000000 476.376068,1.000000 482.532043,1.468657 
	C483.000000,168.291550 483.000000,334.645782 483.000000,501.000000 
	C477.311951,501.000000 471.623932,501.000000 465.467957,501.000000 
z"/>
<path fill="#3432C9" opacity="1.000000" stroke="none" 
	d="
M483.469727,501.000000 
	C483.000000,334.645782 483.000000,168.291550 483.000000,1.468657 
	C488.995087,1.000000 494.990143,1.000000 500.962708,1.000000 
	C500.962708,167.666672 500.962708,334.333344 500.962708,501.000000 
	C495.263397,501.000000 489.601410,501.000000 483.469727,501.000000 
z"/>
<path fill="#0B0A29" opacity="1.000000" stroke="none" 
	d="
M91.467941,501.000000 
	C91.000000,334.645782 91.000000,168.291550 91.000000,1.468657 
	C96.688042,1.000000 102.376083,1.000000 108.532166,1.468657 
	C109.000237,92.731476 108.996613,183.525635 109.017357,274.319794 
	C109.018005,277.143463 109.271103,279.967102 109.224426,283.035706 
	C109.373711,284.152496 109.705078,285.024384 109.889603,286.230988 
	C109.495277,290.662048 109.034805,294.758179 109.032082,298.854675 
	C108.987267,366.236420 109.000099,433.618225 109.000000,501.000000 
	C103.311958,501.000000 97.623917,501.000000 91.467941,501.000000 
M101.350098,286.893738 
	C101.350098,284.960449 101.350098,283.027191 101.350098,281.047546 
	C98.623955,282.174225 98.059212,286.532074 99.512512,293.748352 
	C102.052986,293.748352 104.550369,293.748352 107.047752,293.748352 
	C107.052483,293.503876 107.057213,293.259369 107.061951,293.014893 
	C105.140625,293.014893 103.219307,293.014893 100.475876,293.014893 
	C101.008270,290.835114 101.402489,289.221039 101.350098,286.893738 
z"/>
<path fill="#0D0C30" opacity="1.000000" stroke="none" 
	d="
M109.467941,501.000000 
	C109.000099,433.618225 108.987267,366.236420 109.032082,298.854675 
	C109.034805,294.758179 109.495277,290.662048 110.202682,286.395325 
	C112.927956,287.135620 115.193298,288.046265 117.458641,288.956940 
	C117.518349,288.722168 117.578056,288.487396 117.637756,288.252594 
	C115.741302,286.509369 113.844849,284.766144 111.948395,283.022919 
	C113.964928,282.749390 115.981461,282.475830 117.937317,282.210480 
	C114.488983,279.285950 113.501320,279.345398 109.406509,282.790741 
	C109.271103,279.967102 109.018005,277.143463 109.017357,274.319794 
	C108.996613,183.525635 109.000237,92.731476 109.000107,1.468657 
	C114.688042,1.000000 120.376083,1.000000 126.532059,1.000000 
	C127.000000,91.252411 127.000046,181.504822 126.999893,271.757233 
	C126.999878,279.010437 126.999191,279.010437 121.975197,280.463379 
	C122.679390,283.173248 123.285439,285.680664 123.988785,288.160492 
	C124.634781,290.438171 125.512329,292.656372 126.052437,294.956055 
	C126.535248,297.011780 126.960274,299.142792 126.961754,301.240906 
	C127.008339,367.514801 126.999992,433.788757 127.000000,500.531342 
	C121.311958,501.000000 115.623917,501.000000 109.467941,501.000000 
z"/>
<path fill="#2A29A3" opacity="1.000000" stroke="none" 
	d="
M407.532410,1.000000 
	C408.000000,93.917000 408.004517,186.834000 407.979675,279.751007 
	C407.978882,282.758545 408.970947,286.157562 405.076813,287.992096 
	C404.640076,288.197876 404.825806,291.394989 405.272400,291.542664 
	C408.992920,292.772583 407.967468,295.771790 407.968903,298.242981 
	C408.007751,365.516205 407.999969,432.789429 408.000000,500.531342 
	C402.645081,501.000000 397.290131,501.000000 391.471802,500.587341 
	C391.308777,490.050873 391.796600,479.928192 391.854370,469.803040 
	C391.907440,460.505402 391.334900,451.205078 391.336670,441.906006 
	C391.338470,432.604950 391.897095,423.303467 391.873138,414.003052 
	C391.842438,402.093170 391.378357,390.184998 391.275238,378.274567 
	C391.160828,365.060364 391.272003,351.844421 391.231323,338.629395 
	C391.186584,324.091003 391.080811,309.552826 391.021362,294.716614 
	C391.050690,294.219849 391.060333,294.020996 391.278503,293.718201 
	C391.827972,293.517090 392.016663,293.292206 392.004974,292.947571 
	C391.956909,292.955536 391.950134,293.052765 392.339783,293.029602 
	C396.731812,288.320740 396.116913,283.716919 391.051392,279.695618 
	C391.322266,270.513611 391.612976,261.692627 391.737549,252.869339 
	C391.834229,246.021576 391.716278,239.170914 391.707153,232.321518 
	C391.698456,225.777344 391.701080,219.233124 391.709778,212.688950 
	C391.718872,205.839569 391.743774,198.990204 391.756775,192.140823 
	C391.768890,185.757629 391.776764,179.374435 391.782104,172.991241 
	C391.787964,165.979477 391.814484,158.967590 391.784454,151.955963 
	C391.756439,145.413025 391.644073,138.870468 391.609314,132.327530 
	C391.574615,125.798401 391.591766,119.269005 391.583191,112.739731 
	C391.574188,105.875473 391.546478,99.011200 391.555054,92.146965 
	C391.563202,85.617661 391.601074,79.088371 391.637878,72.559143 
	C391.674744,66.015343 391.799744,59.471111 391.754028,52.927986 
	C391.690125,43.783630 391.505035,34.640110 391.369202,25.496267 
	C391.247955,17.330818 391.123230,9.165421 391.000000,1.000000 
	C396.354919,1.000000 401.709869,1.000000 407.532410,1.000000 
M400.482697,285.845551 
	C400.169708,285.905029 399.856720,285.964508 399.543732,286.024017 
	C399.854370,286.095093 400.164978,286.166168 400.482697,285.845551 
z"/>
<path fill="#10103F" opacity="1.000000" stroke="none" 
	d="
M145.466858,501.000000 
	C145.000000,334.645782 145.000000,168.291550 145.000000,1.468657 
	C150.022095,1.000000 155.044189,1.000000 160.533142,1.468657 
	C161.000000,168.291550 161.000000,334.645782 161.000000,501.000000 
	C155.977905,501.000000 150.955811,501.000000 145.466858,501.000000 
z"/>
<path fill="#010103" opacity="1.000000" stroke="none" 
	d="
M16.528801,1.000000 
	C17.000000,167.354233 17.000000,333.708466 17.000000,500.531342 
	C11.671104,501.000000 6.342209,501.000000 1.035115,501.000000 
	C1.035115,334.333344 1.035115,167.666656 1.035115,1.000000 
	C6.066021,1.000000 11.061812,1.000000 16.528801,1.000000 
z"/>
<path fill="#25248F" opacity="1.000000" stroke="none" 
	d="
M344.000000,1.000000 
	C348.689240,1.000000 353.378510,1.000000 358.533875,1.468657 
	C359.000000,92.763344 358.990753,183.589371 359.046661,274.415375 
	C359.048279,277.020081 359.741669,279.624329 360.213074,282.450500 
	C360.526031,282.919037 360.716187,283.181946 360.532349,283.739716 
	C360.267517,286.416534 360.354462,288.814484 360.448059,291.445068 
	C360.472046,291.999054 360.394043,292.295410 360.038696,292.975677 
	C359.571136,295.838013 359.037781,298.291107 359.036133,300.744629 
	C358.990906,367.496399 359.000000,434.248199 359.000000,501.000000 
	C354.310760,501.000000 349.621490,501.000000 344.466125,500.531342 
	C344.000000,419.758301 344.013641,339.453918 343.922729,259.149658 
	C343.920410,257.099884 342.769623,255.051453 342.098206,252.572601 
	C342.085266,250.411606 342.128510,248.680405 342.529449,246.807465 
	C343.258087,244.627319 343.951996,242.589157 343.953400,240.550507 
	C344.008209,160.700363 344.000000,80.850182 344.000000,1.000000 
z"/>
<path fill="#272696" opacity="1.000000" stroke="none" 
	d="
M360.112488,282.228790 
	C359.741669,279.624329 359.048279,277.020081 359.046661,274.415375 
	C358.990753,183.589371 359.000000,92.763344 359.000000,1.468657 
	C363.024536,1.000000 367.049103,1.000000 371.536804,1.468657 
	C372.010132,95.319107 372.020264,188.700912 371.997192,282.469910 
	C371.233582,287.399567 369.870819,292.165009 375.995850,294.740967 
	C375.997559,363.794281 375.998779,432.397125 376.000000,501.000000 
	C370.645081,501.000000 365.290131,501.000000 359.467590,501.000000 
	C359.000000,434.248199 358.990906,367.496399 359.036133,300.744629 
	C359.037781,298.291107 359.571136,295.838013 360.413513,292.960876 
	C362.068420,292.775604 363.156799,293.094025 364.267487,293.228485 
	C365.229797,293.344940 366.217346,293.252686 365.909882,293.252686 
	C365.133575,292.352936 364.085022,291.137634 363.010437,289.953461 
	C362.984467,289.984589 362.930054,290.044739 363.285767,289.972778 
	C366.813141,288.287689 370.569397,286.405396 368.179749,282.238312 
	C366.211090,278.805389 362.833923,280.017975 360.112488,282.228790 
z"/>
<path fill="#121245" opacity="1.000000" stroke="none" 
	d="
M161.466858,501.000000 
	C161.000000,334.645782 161.000000,168.291550 161.000000,1.468657 
	C165.024551,1.000000 169.049088,1.000000 173.536819,1.468657 
	C174.000015,41.695389 173.993408,81.453461 174.015854,121.211525 
	C174.017258,123.699608 174.246185,126.187553 174.219406,128.971283 
	C168.441025,138.271606 164.834671,147.650772 167.038834,158.647675 
	C168.913910,168.002731 171.840240,176.776733 177.958527,184.628784 
	C179.983444,187.651093 181.943054,190.343689 183.920776,193.343369 
	C184.334183,194.331955 184.729477,195.013443 184.962173,196.074951 
	C184.200119,199.633698 183.600647,202.812439 182.684952,205.869232 
	C180.739594,203.827164 179.110474,201.907059 176.830750,199.220139 
	C175.425095,205.222992 174.278839,210.117996 172.995514,215.364014 
	C172.055069,219.148117 171.251724,222.581223 170.295593,226.386307 
	C169.552551,229.843552 168.962311,232.928787 168.240982,236.406937 
	C167.784302,239.869736 167.458710,242.939651 167.048859,246.453415 
	C167.058426,249.601990 167.152283,252.306686 167.205872,255.397400 
	C167.758118,258.194550 168.350601,260.605713 168.942200,263.414978 
	C169.630066,270.482666 173.621841,275.254547 177.928040,280.148956 
	C177.506226,283.007324 177.033356,285.465485 177.031982,287.923889 
	C176.992401,358.949249 177.000000,429.974609 177.000000,501.000000 
	C171.977905,501.000000 166.955811,501.000000 161.466858,501.000000 
z"/>
<path fill="#29279D" opacity="1.000000" stroke="none" 
	d="
M376.466125,501.000000 
	C375.998779,432.397125 375.997559,363.794281 376.360962,294.679932 
	C381.990265,292.436127 382.969910,289.003448 380.010986,282.434113 
	C380.002625,282.240692 379.946411,281.857544 379.960449,281.398010 
	C379.982971,187.625656 379.991486,94.312828 380.000000,1.000000 
	C383.361298,1.000000 386.722565,1.000000 390.541931,1.000000 
	C391.123230,9.165421 391.247955,17.330818 391.369202,25.496267 
	C391.505035,34.640110 391.690125,43.783630 391.754028,52.927986 
	C391.799744,59.471111 391.674744,66.015343 391.637878,72.559143 
	C391.601074,79.088371 391.563202,85.617661 391.555054,92.146965 
	C391.546478,99.011200 391.574188,105.875473 391.583191,112.739731 
	C391.591766,119.269005 391.574615,125.798401 391.609314,132.327530 
	C391.644073,138.870468 391.756439,145.413025 391.784454,151.955963 
	C391.814484,158.967590 391.787964,165.979477 391.782104,172.991241 
	C391.776764,179.374435 391.768890,185.757629 391.756775,192.140823 
	C391.743774,198.990204 391.718872,205.839569 391.709778,212.688950 
	C391.701080,219.233124 391.698456,225.777344 391.707153,232.321518 
	C391.716278,239.170914 391.834229,246.021576 391.737549,252.869339 
	C391.612976,261.692627 391.322266,270.513611 390.676971,279.741089 
	C386.463745,280.134399 384.944824,282.504089 384.741058,285.810425 
	C384.527893,289.269867 384.197937,293.008667 389.173645,294.185181 
	C389.907288,294.615021 390.454437,294.814789 391.001587,295.014557 
	C391.080811,309.552826 391.186584,324.091003 391.231323,338.629395 
	C391.272003,351.844421 391.160828,365.060364 391.275238,378.274567 
	C391.378357,390.184998 391.842438,402.093170 391.873138,414.003052 
	C391.897095,423.303467 391.338470,432.604950 391.336670,441.906006 
	C391.334900,451.205078 391.907440,460.505402 391.854370,469.803040 
	C391.796600,479.928192 391.308777,490.050873 391.004211,500.587341 
	C386.310760,501.000000 381.621490,501.000000 376.466125,501.000000 
z"/>
<path fill="#222186" opacity="1.000000" stroke="none" 
	d="
M332.000000,501.000000 
	C326.977905,501.000000 321.955811,501.000000 316.466858,500.531342 
	C316.000000,444.588379 316.017456,389.114014 315.948273,333.639801 
	C315.944824,330.870178 315.189362,328.101440 315.057800,325.098511 
	C315.488037,322.142761 315.644531,319.420807 315.848633,316.179565 
	C315.892731,306.006531 315.889221,296.352753 315.912628,286.526703 
	C315.939514,286.354431 316.025360,286.016449 316.394836,286.004181 
	C319.940826,284.374603 323.117340,282.757294 326.584473,281.053925 
	C327.890930,280.303680 328.906738,279.639465 330.300446,279.108887 
	C331.118896,281.412170 331.942505,283.581482 331.944519,285.751556 
	C332.011597,357.501007 332.000000,429.250488 332.000000,501.000000 
z"/>
<path fill="#1D1D6D" opacity="1.000000" stroke="none" 
	d="
M277.000000,501.000000 
	C269.312408,501.000000 261.624847,501.000000 253.468994,500.531342 
	C252.998764,465.104675 252.996780,430.146637 253.409851,395.118164 
	C255.489990,394.922882 257.155060,394.798096 258.820160,394.673279 
	C258.849213,394.026123 258.878296,393.378967 258.907379,392.731812 
	C255.379120,392.375427 251.850876,392.019073 248.139908,391.644257 
	C251.998123,386.791748 255.524368,382.356720 259.628510,377.194916 
	C256.560608,376.881744 254.794266,376.701447 253.021576,376.019836 
	C253.012833,364.624817 253.010422,353.731079 253.458740,342.715729 
	C257.127747,342.594086 260.346039,342.594086 264.083374,342.594086 
	C264.083374,348.460510 264.083374,353.638367 264.083374,359.167786 
	C267.085388,359.167786 269.541412,359.167786 271.998199,359.626007 
	C272.004150,365.567841 272.009399,371.051453 271.720551,376.720398 
	C272.073364,377.771088 272.632202,379.279846 273.383453,379.382660 
	C275.747986,379.706299 278.184784,379.501862 281.635620,379.501862 
	C277.303925,384.851715 273.641113,389.375458 269.259125,394.787415 
	C273.091827,394.984741 275.043640,395.085236 276.996704,395.642761 
	C276.998627,431.066498 276.999329,466.033264 277.000000,501.000000 
z"/>
<path fill="#13134B" opacity="1.000000" stroke="none" 
	d="
M177.466125,501.000000 
	C177.000000,429.974609 176.992401,358.949249 177.031982,287.923889 
	C177.033356,285.465485 177.506226,283.007324 178.244324,280.285217 
	C184.175110,282.956665 189.620911,285.891907 195.050568,289.263123 
	C194.674408,298.542542 194.314362,307.385925 193.532257,316.363159 
	C192.123154,317.624512 190.297562,318.737671 190.278015,319.881744 
	C190.070465,332.024292 190.108475,344.172180 190.230194,356.317047 
	C190.239807,357.274994 191.380951,358.221588 191.997345,359.591675 
	C192.256882,367.996948 192.706131,375.983612 192.723724,383.971222 
	C192.744125,393.233398 192.224731,402.496643 192.236404,411.759033 
	C192.248093,421.021973 192.803482,430.284607 192.793839,439.547028 
	C192.784195,448.809601 192.277100,458.070557 192.157257,467.334381 
	C192.012070,478.555054 192.044464,489.778015 192.000000,501.000000 
	C187.310745,501.000000 182.621490,501.000000 177.466125,501.000000 
z"/>
<path fill="#201F7D" opacity="1.000000" stroke="none" 
	d="
M314.784027,325.332306 
	C315.189362,328.101440 315.944824,330.870178 315.948273,333.639801 
	C316.017456,389.114014 316.000000,444.588379 316.000000,500.531342 
	C309.978851,501.000000 303.957703,501.000000 297.468262,500.531342 
	C296.998810,453.101959 296.997620,406.141235 297.434998,359.112915 
	C299.466888,358.951691 301.060242,358.858032 303.049438,358.741119 
	C303.049438,347.469635 303.049438,336.557587 303.049438,325.332306 
	C307.238342,325.332306 311.011169,325.332306 314.784027,325.332306 
z"/>
<path fill="#18195E" opacity="1.000000" stroke="none" 
	d="
M237.000000,501.000000 
	C232.974823,501.000000 228.949631,501.000000 224.462219,500.531342 
	C223.999283,465.103790 223.998581,430.144928 224.437317,395.115448 
	C226.915222,395.044861 228.953690,395.044861 230.992172,395.044861 
	C231.075989,394.304016 231.159805,393.563202 231.243622,392.822357 
	C227.791183,392.430389 224.338760,392.038422 220.460281,391.598053 
	C224.415497,386.738434 227.980057,382.358795 232.147232,377.238770 
	C228.551666,377.051392 226.274826,376.932739 223.998596,376.358032 
	C223.998535,370.325134 223.997833,364.748260 224.407455,359.101685 
	C226.442856,359.031952 228.067917,359.031952 230.822723,359.031952 
	C224.953751,350.322723 219.619324,342.406708 214.099274,334.215271 
	C219.050797,328.571411 223.970856,322.963440 229.348892,316.833435 
	C225.244415,316.591919 222.126343,316.408417 219.006378,315.740723 
	C219.002090,306.200470 218.999664,297.144379 219.312012,287.901184 
	C226.695557,284.110931 233.764313,280.507782 241.112518,277.225281 
	C241.595795,279.002533 241.972107,280.458740 241.976059,281.915894 
	C242.007111,293.358673 241.966873,304.801605 241.525543,316.371124 
	C239.347321,316.609070 237.592194,316.720398 235.484222,316.854095 
	C235.484222,330.540985 235.460007,343.757599 235.548767,356.973480 
	C235.553696,357.708710 236.493179,358.437653 236.998322,359.627563 
	C236.999329,407.057037 236.999664,454.028534 237.000000,501.000000 
z"/>
<path fill="#1F1E75" opacity="1.000000" stroke="none" 
	d="
M296.996429,359.180511 
	C296.997620,406.141235 296.998810,453.101959 297.000000,500.531342 
	C290.645599,501.000000 284.291199,501.000000 277.468384,501.000000 
	C276.999329,466.033264 276.998627,431.066498 277.448120,395.572235 
	C280.610260,395.044708 283.322205,395.044708 286.034180,395.044708 
	C286.125305,394.335266 286.216461,393.625854 286.307587,392.916412 
	C282.909607,392.499786 279.511597,392.083130 275.709839,391.617004 
	C279.507812,386.802063 283.051086,382.310059 287.086761,377.193787 
	C284.533661,376.857452 283.271332,376.691132 282.006897,376.023285 
	C282.337616,358.803467 282.670410,342.085205 283.449432,325.284393 
	C286.474701,325.201843 289.053802,325.201843 292.102417,325.201843 
	C292.102417,336.779022 292.102417,347.772552 292.102417,358.801514 
	C294.049866,358.952332 295.523132,359.066437 296.996429,359.180511 
z"/>
<path fill="#23238A" opacity="1.000000" stroke="none" 
	d="
M332.460632,501.000000 
	C332.000000,429.250488 332.011597,357.501007 331.944519,285.751556 
	C331.942505,283.581482 331.118896,281.412170 330.432434,278.843506 
	C330.912018,277.527069 331.637512,276.609680 332.651215,275.504059 
	C334.931763,271.873596 336.924133,268.431335 339.061218,264.641296 
	C339.926636,261.575348 340.647308,258.857178 341.527344,255.854340 
	C341.842590,254.713928 341.998505,253.858154 342.154419,253.002396 
	C342.769623,255.051453 343.920410,257.099884 343.922729,259.149658 
	C344.013641,339.453918 344.000000,419.758301 344.000000,500.531342 
	C340.307098,501.000000 336.614166,501.000000 332.460632,501.000000 
z"/>
<path fill="#28269A" opacity="1.000000" stroke="none" 
	d="
M379.555847,1.000000 
	C379.991486,94.312828 379.982971,187.625656 379.754303,281.257233 
	C379.020844,281.183624 378.507568,280.791260 377.994293,280.398865 
	C377.830627,280.573334 377.666992,280.747772 377.503326,280.922241 
	C377.906799,281.583435 378.310272,282.244659 378.884735,283.284912 
	C378.895935,286.388184 378.830658,289.126923 378.419708,291.812744 
	C378.381561,292.061951 375.163788,292.261719 375.087708,292.000092 
	C374.360382,289.499084 374.074249,286.874268 373.473053,284.329468 
	C373.280060,283.512512 372.527161,282.827881 372.030396,282.082703 
	C372.020264,188.700912 372.010132,95.319107 372.000000,1.468657 
	C374.370575,1.000000 376.741119,1.000000 379.555847,1.000000 
M374.452271,280.496704 
	C374.452271,280.496704 374.518219,280.464752 374.452271,280.496704 
z"/>
<path fill="#151452" opacity="1.000000" stroke="none" 
	d="
M192.466858,501.000000 
	C192.044464,489.778015 192.012070,478.555054 192.157257,467.334381 
	C192.277100,458.070557 192.784195,448.809601 192.793839,439.547028 
	C192.803482,430.284607 192.248093,421.021973 192.236404,411.759033 
	C192.224731,402.496643 192.744125,393.233398 192.723724,383.971222 
	C192.706131,375.983612 192.256882,367.996948 192.450623,359.520142 
	C195.503281,359.030426 198.103790,359.030426 201.001175,359.030426 
	C200.964874,352.679596 199.942261,346.386017 207.030548,342.944977 
	C207.728867,344.107697 208.469574,345.341034 209.029877,346.983307 
	C208.566513,349.845032 208.039169,352.297546 208.036728,354.750580 
	C207.988129,403.500366 208.000198,452.250183 208.000000,501.000000 
	C202.977905,501.000000 197.955811,501.000000 192.466858,501.000000 
z"/>
<path fill="#1A1964" opacity="1.000000" stroke="none" 
	d="
M237.466858,501.000000 
	C236.999664,454.028534 236.999329,407.057037 237.451279,359.557190 
	C240.486618,359.028839 243.069641,359.028839 246.145142,359.028839 
	C246.145142,353.286316 246.145142,348.100800 246.145142,342.837372 
	C248.778229,342.837372 250.893112,342.837372 253.008011,342.837372 
	C253.010422,353.731079 253.012833,364.624817 252.593765,376.109436 
	C249.296005,376.784790 246.419724,376.869263 243.543442,376.953705 
	C243.540314,377.652557 243.537201,378.351410 243.534088,379.050262 
	C246.712738,379.343445 249.891403,379.636658 253.755142,379.993042 
	C251.358002,382.914581 249.452225,385.164856 247.629150,387.480225 
	C245.917435,389.654144 244.293076,391.896851 241.819092,395.188629 
	C246.701492,395.188629 249.848145,395.188629 252.994812,395.188629 
	C252.996780,430.146637 252.998764,465.104675 253.000366,500.531342 
	C247.977905,501.000000 242.955811,501.000000 237.466858,501.000000 
z"/>
<path fill="#181759" opacity="1.000000" stroke="none" 
	d="
M208.466858,501.000000 
	C208.000198,452.250183 207.988129,403.500366 208.036728,354.750580 
	C208.039169,352.297546 208.566513,349.845032 209.315598,347.185486 
	C211.175491,349.039185 212.798508,350.983490 213.913910,353.184967 
	C216.050400,357.401733 218.957520,359.996765 223.997131,359.171387 
	C223.997833,364.748260 223.998535,370.325134 223.559418,376.426819 
	C220.734009,377.093994 218.348419,377.236359 215.962845,377.378723 
	C215.952255,377.959412 215.941666,378.540131 215.931076,379.120819 
	C219.170425,379.338501 222.409790,379.556183 226.392639,379.823853 
	C222.308289,384.855713 218.641235,389.373505 214.974182,393.891296 
	C215.368454,394.322876 215.762741,394.754456 216.157028,395.186035 
	C218.770645,395.186035 221.384262,395.186035 223.997879,395.186035 
	C223.998581,430.144928 223.999283,465.103790 224.000000,500.531342 
	C218.977905,501.000000 213.955811,501.000000 208.466858,501.000000 
z"/>
<path fill="#1B1B6A" opacity="1.000000" stroke="none" 
	d="
M252.000000,1.000000 
	C257.354919,1.000000 262.709869,1.000000 268.532410,1.430777 
	C268.810059,4.168028 268.441467,6.475826 268.458557,8.780763 
	C268.587372,26.144169 268.933380,43.507015 268.933289,60.870033 
	C268.933167,78.233231 268.507202,95.596451 268.512421,112.959595 
	C268.513550,116.657509 269.569366,120.355103 269.930664,124.324554 
	C266.114838,127.320122 262.507568,130.043991 258.571106,132.879517 
	C254.536407,135.673264 250.830948,138.355377 246.831573,140.782013 
	C245.362106,139.118912 244.186539,137.711273 243.096100,136.025024 
	C243.444992,135.470444 243.708771,135.194473 244.311844,134.903351 
	C248.612411,131.484192 252.573685,128.080215 256.939117,124.328957 
	C254.580917,123.395081 252.789902,122.685822 251.073242,121.566727 
	C251.431732,118.697365 251.959991,116.238174 251.963425,113.778244 
	C252.015976,76.185555 252.000000,38.592766 252.000000,1.000000 
z"/>
<path fill="#18175D" opacity="1.000000" stroke="none" 
	d="
M217.000000,1.000000 
	C223.021149,1.000000 229.042297,1.000000 235.531723,1.468657 
	C235.981003,40.707375 235.962021,79.477440 235.616379,118.251213 
	C234.855728,118.247925 234.421722,118.240929 233.619110,118.113670 
	C230.494629,117.420334 227.738785,116.847252 224.588318,116.152138 
	C221.126038,115.696953 218.058380,115.363808 214.814667,114.888626 
	C214.638641,114.746597 214.306915,114.439049 214.721329,114.266075 
	C215.757126,112.010902 216.913727,109.930374 216.920227,107.846260 
	C217.031265,72.231110 216.999954,36.615505 217.000000,1.000000 
z"/>
<path fill="#212081" opacity="1.000000" stroke="none" 
	d="
M305.000000,1.000000 
	C311.021149,1.000000 317.042297,1.000000 323.531738,1.468657 
	C324.000000,37.866776 324.023865,73.796288 323.950256,109.725601 
	C323.944916,112.328690 323.230560,114.930328 322.499207,117.384285 
	C319.097931,116.225494 316.043335,115.215065 312.581848,114.096634 
	C309.780823,113.569481 307.386597,113.150330 304.993500,112.279373 
	C304.996399,74.885048 304.998199,37.942524 305.000000,1.000000 
z"/>
<path fill="#1F1E79" opacity="1.000000" stroke="none" 
	d="
M304.531738,1.000000 
	C304.998199,37.942524 304.996399,74.885048 304.577393,112.328117 
	C302.770355,112.936111 301.380524,113.043556 299.570007,113.107193 
	C295.095764,114.024155 291.042145,114.984924 286.738037,115.908127 
	C286.321381,115.840714 286.155182,115.810890 285.990997,115.326141 
	C285.995331,76.914146 285.997681,38.957073 286.000000,1.000000 
	C292.021149,1.000000 298.042297,1.000000 304.531738,1.000000 
z"/>
<path fill="#1D1C71" opacity="1.000000" stroke="none" 
	d="
M285.532410,1.000000 
	C285.997681,38.957073 285.995331,76.914146 285.672546,115.499588 
	C280.771820,118.671295 276.191559,121.214638 271.364929,123.807220 
	C270.792145,123.921928 270.465698,123.987389 270.139282,124.052849 
	C269.569366,120.355103 268.513550,116.657509 268.512421,112.959595 
	C268.507202,95.596451 268.933167,78.233231 268.933289,60.870033 
	C268.933380,43.507015 268.587372,26.144169 268.458557,8.780763 
	C268.441467,6.475826 268.810059,4.168028 269.000000,1.430777 
	C274.354919,1.000000 279.709869,1.000000 285.532410,1.000000 
z"/>
<path fill="#161555" opacity="1.000000" stroke="none" 
	d="
M216.532059,1.000000 
	C216.999954,36.615505 217.031265,72.231110 216.920227,107.846260 
	C216.913727,109.930374 215.757126,112.010902 214.315979,114.304413 
	C210.325882,114.437973 207.155548,114.360222 203.584763,114.228745 
	C201.845642,114.296234 200.506989,114.417435 199.129303,114.037560 
	C199.060196,76.024315 199.030090,38.512157 199.000000,1.000000 
	C204.688034,1.000000 210.376083,1.000000 216.532059,1.000000 
z"/>
<path fill="#1A1964" opacity="1.000000" stroke="none" 
	d="
M235.943039,118.247498 
	C235.962021,79.477440 235.981003,40.707375 236.000000,1.468657 
	C241.022095,1.000000 246.044189,1.000000 251.533142,1.000000 
	C252.000000,38.592766 252.015976,76.185555 251.963425,113.778244 
	C251.959991,116.238174 251.431732,118.697365 250.682495,121.576561 
	C248.153336,121.641716 246.089279,121.287201 243.739044,120.722885 
	C240.949585,119.757881 238.446304,119.002686 235.943039,118.247498 
z"/>
<path fill="#23238A" opacity="1.000000" stroke="none" 
	d="
M343.555847,1.000000 
	C344.000000,80.850182 344.008209,160.700363 343.953400,240.550507 
	C343.951996,242.589157 343.258087,244.627319 342.439911,246.817871 
	C341.992676,246.970032 341.832184,247.052139 341.879395,246.636688 
	C341.835205,245.239426 341.778595,244.252945 341.646973,243.276566 
	C340.086945,231.705139 333.915741,222.219696 327.849121,212.209503 
	C328.260040,207.823242 328.623047,203.936966 329.277222,200.204193 
	C331.763214,202.686981 332.422821,201.294174 332.964417,199.056335 
	C334.829559,191.349884 336.761414,183.659439 338.692993,175.969193 
	C343.141907,158.256668 344.677307,140.885925 333.188843,124.957596 
	C334.376404,122.333061 335.885742,119.813507 335.895508,117.288155 
	C336.045441,78.525879 336.000000,39.762852 336.000000,1.000000 
	C338.370575,1.000000 340.741119,1.000000 343.555847,1.000000 
z"/>
<path fill="#14134D" opacity="1.000000" stroke="none" 
	d="
M198.533875,1.000000 
	C199.030090,38.512157 199.060196,76.024315 198.794693,114.176125 
	C195.661392,115.624771 192.823685,116.433762 189.657227,117.268250 
	C187.916321,117.872826 186.504166,118.451912 184.823792,118.709511 
	C184.370377,116.419266 184.025375,114.450638 184.023666,112.481720 
	C183.991531,75.321167 184.000000,38.160580 184.000000,1.000000 
	C188.689255,1.000000 193.378510,1.000000 198.533875,1.000000 
z"/>
<path fill="#232288" opacity="1.000000" stroke="none" 
	d="
M335.539368,1.000000 
	C336.000000,39.762852 336.045441,78.525879 335.895508,117.288155 
	C335.885742,119.813507 334.376404,122.333061 332.910278,124.794434 
	C330.187317,123.114311 328.118683,121.495071 325.870575,119.649429 
	C324.742676,118.792892 323.794281,118.162773 322.845856,117.532654 
	C323.230560,114.930328 323.944916,112.328690 323.950256,109.725601 
	C324.023865,73.796288 324.000000,37.866776 324.000000,1.468657 
	C327.692902,1.000000 331.385834,1.000000 335.539368,1.000000 
z"/>
<path fill="#131248" opacity="1.000000" stroke="none" 
	d="
M183.545898,1.000000 
	C184.000000,38.160580 183.991531,75.321167 184.023666,112.481720 
	C184.025375,114.450638 184.370377,116.419266 184.620209,118.976379 
	C182.465378,121.405884 180.245911,123.247040 177.721313,125.203217 
	C176.400543,126.437363 175.384903,127.556465 174.369263,128.675568 
	C174.246185,126.187553 174.017258,123.699608 174.015854,121.211525 
	C173.993408,81.453461 174.000015,41.695389 174.000000,1.468657 
	C177.030594,1.000000 180.061188,1.000000 183.545898,1.000000 
z"/>
<path fill="#CBCBD3" opacity="1.000000" stroke="none" 
	d="
M109.224426,283.035706 
	C113.501320,279.345398 114.488983,279.285950 117.937317,282.210480 
	C115.981461,282.475830 113.964928,282.749390 111.948395,283.022919 
	C113.844849,284.766144 115.741302,286.509369 117.637756,288.252594 
	C117.578056,288.487396 117.518349,288.722168 117.458641,288.956940 
	C115.193298,288.046265 112.927956,287.135620 110.349533,286.060608 
	C109.705078,285.024384 109.373711,284.152496 109.224426,283.035706 
z"/>
<path fill="#DFDFE3" opacity="1.000000" stroke="none" 
	d="
M101.573410,287.250366 
	C101.402489,289.221039 101.008270,290.835114 100.475876,293.014893 
	C103.219307,293.014893 105.140625,293.014893 107.061951,293.014893 
	C107.057213,293.259369 107.052483,293.503876 107.047752,293.748352 
	C104.550369,293.748352 102.052986,293.748352 99.512512,293.748352 
	C98.059212,286.532074 98.623955,282.174225 101.350098,281.047546 
	C101.350098,283.027191 101.350098,284.960449 101.573410,287.250366 
z"/>
<path fill="#3634A5" opacity="1.000000" stroke="none" 
	d="
M391.021332,294.716614 
	C390.454437,294.814789 389.907288,294.615021 389.151581,293.824585 
	C388.176819,290.518066 387.083618,287.832153 386.830902,285.069397 
	C386.748230,284.165314 388.860229,282.264191 389.950775,282.277496 
	C391.000031,282.290314 392.834717,284.142639 392.899139,285.268311 
	C393.046143,287.836609 392.320984,290.454834 391.950134,293.052765 
	C391.950134,293.052765 391.956909,292.955536 391.821136,293.071777 
	C391.442902,293.363190 391.237762,293.574585 391.069977,293.822174 
	C391.060333,294.020996 391.050690,294.219849 391.021332,294.716614 
z"/>
<path fill="#D2D2EB" opacity="1.000000" stroke="none" 
	d="
M392.339783,293.029602 
	C392.320984,290.454834 393.046143,287.836609 392.899139,285.268311 
	C392.834717,284.142639 391.000031,282.290314 389.950775,282.277496 
	C388.860229,282.264191 386.748230,284.165314 386.830902,285.069397 
	C387.083618,287.832153 388.176819,290.518066 388.965088,293.594482 
	C384.197937,293.008667 384.527893,289.269867 384.741058,285.810425 
	C384.944824,282.504089 386.463745,280.134399 390.625244,280.101105 
	C396.116913,283.716919 396.731812,288.320740 392.339783,293.029602 
z"/>
<path fill="#2C2BAB" opacity="1.000000" stroke="none" 
	d="
M400.479156,286.041382 
	C400.164978,286.166168 399.854370,286.095093 399.543732,286.024017 
	C399.856720,285.964508 400.169708,285.905029 400.479156,286.041382 
z"/>
<path fill="#D2D2EB" opacity="1.000000" stroke="none" 
	d="
M391.278503,293.718201 
	C391.237762,293.574585 391.442902,293.363190 391.869202,293.063782 
	C392.016663,293.292206 391.827972,293.517090 391.278503,293.718201 
z"/>
<path fill="#03ECF9" opacity="1.000000" stroke="none" 
	d="
M342.098206,252.572601 
	C341.998505,253.858154 341.842590,254.713928 341.116425,255.810547 
	C335.388397,254.364380 330.230621,252.677322 324.996094,250.582550 
	C324.660645,247.445633 324.401917,244.716400 324.519348,242.008606 
	C330.541077,243.704071 336.186615,245.378098 341.832184,247.052139 
	C341.832184,247.052139 341.992676,246.970032 342.082214,246.959625 
	C342.128510,248.680405 342.085266,250.411606 342.098206,252.572601 
z"/>
<path fill="#272696" opacity="1.000000" stroke="none" 
	d="
M360.441406,291.212463 
	C360.354462,288.814484 360.267517,286.416534 360.821106,283.707642 
	C363.101562,283.159485 364.741486,282.922211 366.381409,282.684937 
	C365.909973,284.230652 365.568726,285.833679 364.922180,287.302307 
	C364.477264,288.312927 363.609070,289.137207 362.930054,290.044739 
	C362.930054,290.044739 362.984467,289.984589 362.804565,290.197083 
	C361.896881,290.677216 361.169159,290.944855 360.441406,291.212463 
z"/>
<path fill="#CDCDE7" opacity="1.000000" stroke="none" 
	d="
M363.285767,289.972778 
	C363.609070,289.137207 364.477264,288.312927 364.922180,287.302307 
	C365.568726,285.833679 365.909973,284.230652 366.381409,282.684937 
	C364.741486,282.922211 363.101562,283.159485 361.172913,283.428833 
	C360.716187,283.181946 360.526031,282.919037 360.213074,282.450500 
	C362.833923,280.017975 366.211090,278.805389 368.179749,282.238312 
	C370.569397,286.405396 366.813141,288.287689 363.285767,289.972778 
z"/>
<path fill="#CDCDE7" opacity="1.000000" stroke="none" 
	d="
M360.448059,291.445068 
	C361.169159,290.944855 361.896881,290.677216 362.830536,290.165955 
	C364.085022,291.137634 365.133575,292.352936 365.909882,293.252686 
	C366.217346,293.252686 365.229797,293.344940 364.267487,293.228485 
	C363.156799,293.094025 362.068420,292.775604 360.595520,292.551849 
	C360.394043,292.295410 360.472046,291.999054 360.448059,291.445068 
z"/>
<path fill="#E1E1F1" opacity="1.000000" stroke="none" 
	d="
M371.997192,282.469910 
	C372.527161,282.827881 373.280060,283.512512 373.473053,284.329468 
	C374.074249,286.874268 374.360382,289.499084 375.087708,292.000092 
	C375.163788,292.261719 378.381561,292.061951 378.419708,291.812744 
	C378.830658,289.126923 378.895935,286.388184 379.206360,283.192841 
	C379.577759,282.690308 379.798523,282.658905 380.019318,282.627533 
	C382.969910,289.003448 381.990265,292.436127 376.360474,294.229492 
	C369.870819,292.165009 371.233582,287.399567 371.997192,282.469910 
z"/>
<path fill="#01F9F8" opacity="1.000000" stroke="none" 
	d="
M240.833069,276.904633 
	C233.764313,280.507782 226.695557,284.110931 218.910889,287.890045 
	C210.562332,290.652740 202.820908,289.933746 195.066711,288.827148 
	C189.620911,285.891907 184.175110,282.956665 178.413040,279.885132 
	C173.621841,275.254547 169.630066,270.482666 169.330978,263.395020 
	C174.137329,261.650665 178.554001,260.324402 183.136032,259.292450 
	C184.691101,261.436188 185.956894,263.396118 187.491241,265.116547 
	C195.535294,274.136200 205.614639,273.292175 216.358948,270.878662 
	C224.478760,267.177795 232.233093,263.457275 240.314926,259.662170 
	C248.479538,255.573578 256.316681,251.559586 264.496124,247.414520 
	C271.275299,243.965057 277.712158,240.646683 284.500519,237.237411 
	C288.034790,235.696838 291.217560,234.247162 294.400330,232.797470 
	C294.588226,233.196106 294.776154,233.594727 294.964050,233.993362 
	C292.294739,236.289276 289.625427,238.585205 286.648071,241.019135 
	C280.520813,245.988815 274.701630,250.820465 268.567291,255.797791 
	C259.112457,262.930511 249.972763,269.917572 240.833069,276.904633 
z"/>
<path fill="#151652" opacity="1.000000" stroke="none" 
	d="
M215.993484,270.859070 
	C205.614639,273.292175 195.535294,274.136200 187.491241,265.116547 
	C185.956894,263.396118 184.691101,261.436188 183.184387,258.884064 
	C182.661407,255.456223 182.255402,252.731094 181.927795,249.602325 
	C182.234146,246.802658 182.462097,244.406616 182.814667,241.616562 
	C183.500916,238.199051 184.062576,235.175537 184.766449,231.820465 
	C185.621735,227.997131 186.334854,224.505341 187.270966,220.717346 
	C187.840561,217.242371 191.162125,213.837555 186.732498,210.703873 
	C185.457428,208.923447 184.229309,207.457321 183.001190,205.991196 
	C183.600647,202.812439 184.200119,199.633698 185.256592,196.254028 
	C188.115417,199.048676 190.517242,202.044266 193.020294,205.364243 
	C196.386902,209.804459 199.652267,213.920273 203.061554,218.341614 
	C207.426849,223.789047 211.648224,228.930969 216.010681,234.367188 
	C216.655136,235.369812 217.158478,236.078110 217.310944,237.062866 
	C216.640152,239.082809 216.060898,240.823746 216.043564,242.570251 
	C215.950012,251.999100 215.995773,261.429321 215.993484,270.859070 
z"/>
<path fill="#04E7F9" opacity="1.000000" stroke="none" 
	d="
M178.026459,125.088181 
	C180.245911,123.247040 182.465378,121.405884 184.888428,119.297867 
	C186.504166,118.451912 187.916321,117.872826 189.658386,117.718941 
	C190.381821,123.557579 190.775360,128.971024 191.008087,134.668701 
	C186.646759,139.106964 183.603867,144.148941 184.215088,150.014069 
	C184.981033,157.363846 186.965851,164.586594 188.104889,172.157806 
	C187.522858,177.324951 187.530060,182.235214 186.872910,187.054916 
	C186.587952,189.144852 184.934525,191.048203 183.902664,193.036285 
	C181.943054,190.343689 179.983444,187.651093 178.042770,184.197815 
	C178.374817,180.994110 178.944321,178.552582 178.958893,176.107773 
	C179.044617,161.710632 179.049042,147.312424 178.957230,132.915359 
	C178.940582,130.304443 178.351349,127.697151 178.026459,125.088181 
z"/>
<path fill="#02F1F8" opacity="1.000000" stroke="none" 
	d="
M177.721313,125.203217 
	C178.351349,127.697151 178.940582,130.304443 178.957230,132.915359 
	C179.049042,147.312424 179.044617,161.710632 178.958893,176.107773 
	C178.944321,178.552582 178.374817,180.994110 177.977463,183.868103 
	C171.840240,176.776733 168.913910,168.002731 167.038834,158.647675 
	C164.834671,147.650772 168.441025,138.271606 174.219406,128.971283 
	C175.384903,127.556465 176.400543,126.437363 177.721313,125.203217 
z"/>
<path fill="#06DEF8" opacity="1.000000" stroke="none" 
	d="
M183.920776,193.343369 
	C184.934525,191.048203 186.587952,189.144852 186.872910,187.054916 
	C187.530060,182.235214 187.522858,177.324951 188.339386,172.388107 
	C191.303101,177.129471 193.712631,181.934128 195.947647,187.136887 
	C195.515457,191.476349 195.438004,195.441452 194.924011,199.349106 
	C194.667374,201.300156 193.612732,203.146271 192.919052,205.039841 
	C190.517242,202.044266 188.115417,199.048676 185.419189,195.874023 
	C184.729477,195.013443 184.334183,194.331955 183.920776,193.343369 
z"/>
<path fill="#0FACF6" opacity="1.000000" stroke="none" 
	d="
M186.779434,211.018158 
	C191.162125,213.837555 187.840561,217.242371 186.882507,220.728439 
	C180.996811,222.695267 175.722595,224.354782 170.448364,226.014313 
	C171.251724,222.581223 172.055069,219.148117 173.394440,215.359314 
	C178.213440,213.675110 182.496429,212.346634 186.779434,211.018158 
z"/>
<path fill="#0CBDF7" opacity="1.000000" stroke="none" 
	d="
M170.295593,226.386307 
	C175.722595,224.354782 180.996811,222.695267 186.659515,221.024658 
	C186.334854,224.505341 185.621735,227.997131 184.324066,231.790802 
	C178.617004,233.399796 173.494537,234.706924 168.372070,236.014038 
	C168.962311,232.928787 169.552551,229.843552 170.295593,226.386307 
z"/>
<path fill="#09CCF7" opacity="1.000000" stroke="none" 
	d="
M168.240967,236.406952 
	C173.494537,234.706924 178.617004,233.399796 184.181870,232.122345 
	C184.062576,235.175537 183.500916,238.199051 182.433533,241.622467 
	C176.996262,243.351440 172.064697,244.680496 167.133133,246.009552 
	C167.458710,242.939651 167.784302,239.869736 168.240967,236.406952 
z"/>
<path fill="#03EAF8" opacity="1.000000" stroke="none" 
	d="
M181.849411,250.005951 
	C182.255402,252.731094 182.661407,255.456223 183.019043,258.589752 
	C178.554001,260.324402 174.137329,261.650665 169.331879,262.996887 
	C168.350601,260.605713 167.758118,258.194550 167.570755,255.377808 
	C172.600403,253.316803 177.224915,251.661377 181.849411,250.005951 
z"/>
<path fill="#06DDF9" opacity="1.000000" stroke="none" 
	d="
M181.927795,249.602341 
	C177.224915,251.661377 172.600403,253.316803 167.611023,254.991821 
	C167.152283,252.306686 167.058426,249.601990 167.048859,246.453415 
	C172.064697,244.680496 176.996262,243.351440 182.308945,242.016479 
	C182.462097,244.406616 182.234146,246.802658 181.927795,249.602341 
z"/>
<path fill="#129BF4" opacity="1.000000" stroke="none" 
	d="
M186.732498,210.703857 
	C182.496429,212.346634 178.213440,213.675110 173.531525,215.008301 
	C174.278839,210.117996 175.425095,205.222992 176.830750,199.220139 
	C179.110474,201.907059 180.739594,203.827164 182.684967,205.869232 
	C184.229309,207.457321 185.457428,208.923447 186.732498,210.703857 
z"/>
<path fill="#32309F" opacity="1.000000" stroke="none" 
	d="
M380.010986,282.434113 
	C379.798523,282.658905 379.577759,282.690308 379.035339,282.813782 
	C378.310272,282.244659 377.906799,281.583435 377.503326,280.922241 
	C377.666992,280.747772 377.830627,280.573334 377.994293,280.398865 
	C378.507568,280.791260 379.020844,281.183624 379.740295,281.716766 
	C379.946411,281.857544 380.002625,282.240692 380.010986,282.434113 
z"/>
<path fill="#01F5F6" opacity="1.000000" stroke="none" 
	d="
M297.434998,359.112915 
	C295.523132,359.066437 294.049866,358.952332 292.102417,358.801514 
	C292.102417,347.772552 292.102417,336.779022 292.102417,325.201843 
	C289.053802,325.201843 286.474701,325.201843 283.043274,325.201569 
	C276.229797,323.966156 280.696594,319.768311 279.185150,316.710571 
	C283.571075,316.493256 287.287750,316.309082 291.461731,316.237030 
	C299.879730,316.465698 307.840393,316.582275 315.801025,316.698822 
	C315.644531,319.420807 315.488037,322.142761 315.057800,325.098511 
	C311.011169,325.332306 307.238342,325.332306 303.049438,325.332306 
	C303.049438,336.557587 303.049438,347.469635 303.049438,358.741119 
	C301.060242,358.858032 299.466888,358.951691 297.434998,359.112915 
z"/>
<path fill="#201F7C" opacity="1.000000" stroke="none" 
	d="
M315.848633,316.179565 
	C307.840393,316.582275 299.879730,316.465698 291.460693,315.759460 
	C291.019745,305.963654 291.037170,296.757477 291.495667,287.566528 
	C294.293213,287.696075 296.649597,287.810394 299.461731,288.018127 
	C305.240234,287.640686 310.562988,287.169830 315.885742,286.698975 
	C315.889221,296.352753 315.892731,306.006531 315.848633,316.179565 
z"/>
<path fill="#139AF8" opacity="1.000000" stroke="none" 
	d="
M315.912628,286.526703 
	C310.562988,287.169830 305.240234,287.640686 299.369934,287.690399 
	C292.462860,284.205811 286.117188,281.113098 279.739716,278.087463 
	C273.788483,275.264008 267.803467,272.511749 262.015839,269.443176 
	C264.273102,266.667206 266.658447,265.179810 270.355530,266.897644 
	C276.079224,268.258179 281.436523,269.468384 286.996216,270.786377 
	C287.781555,271.057709 288.364441,271.221283 289.010986,271.766357 
	C292.586609,274.110443 296.041534,276.185120 299.623932,278.009491 
	C305.044464,280.769989 310.553772,283.356201 316.025360,286.016479 
	C316.025360,286.016449 315.939514,286.354431 315.912628,286.526703 
z"/>
<path fill="#10A9F9" opacity="1.000000" stroke="none" 
	d="
M316.394836,286.004211 
	C310.553772,283.356201 305.044464,280.769989 299.623932,278.009491 
	C296.041534,276.185120 292.586609,274.110443 289.441345,271.818634 
	C292.869141,271.911224 295.930176,272.332977 299.436096,272.844482 
	C303.110382,272.894501 306.339813,272.854736 309.876068,273.015564 
	C315.553223,275.857422 320.923553,278.498718 326.293854,281.139984 
	C323.117340,282.757294 319.940826,284.374603 316.394836,286.004211 
z"/>
<path fill="#0EB7F8" opacity="1.000000" stroke="none" 
	d="
M326.584473,281.053925 
	C320.923553,278.498718 315.553223,275.857422 310.151428,272.786438 
	C313.057343,270.511841 315.994751,268.666931 319.019165,267.168884 
	C320.830322,268.719238 322.498474,270.014862 324.291809,271.104492 
	C326.935425,272.710785 329.668243,274.170258 332.363037,275.692261 
	C331.637512,276.609680 330.912018,277.527069 330.054504,278.709869 
	C328.906738,279.639465 327.890930,280.303680 326.584473,281.053925 
z"/>
<path fill="#1D1E72" opacity="1.000000" stroke="none" 
	d="
M291.054565,287.551331 
	C291.037170,296.757477 291.019745,305.963654 291.003357,315.647369 
	C287.287750,316.309082 283.571075,316.493256 279.185150,316.710571 
	C280.696594,319.768311 276.229797,323.966156 282.597046,325.284119 
	C282.670410,342.085205 282.337616,358.803467 281.560364,376.116547 
	C278.082123,376.652588 275.048370,376.593842 272.014618,376.535065 
	C272.009399,371.051453 272.004150,365.567841 272.412476,359.548950 
	C273.463440,358.450409 274.652893,357.891479 274.657349,357.323303 
	C274.761749,343.961609 274.738312,330.598938 274.738312,316.981873 
	C271.523224,316.710846 268.771027,316.478851 266.013672,315.871094 
	C266.253357,313.378601 266.663300,311.265869 266.714325,309.144501 
	C266.928650,300.237091 267.035553,291.327057 267.586273,282.497589 
	C275.678680,284.235229 283.366638,285.893280 291.054565,287.551331 
z"/>
<path fill="#00FBF9" opacity="1.000000" stroke="none" 
	d="
M266.018860,316.246887 
	C268.771027,316.478851 271.523224,316.710846 274.738312,316.981873 
	C274.738312,330.598938 274.761749,343.961609 274.657349,357.323303 
	C274.652893,357.891479 273.463440,358.450409 272.411743,359.090698 
	C269.541412,359.167786 267.085388,359.167786 264.083374,359.167786 
	C264.083374,353.638367 264.083374,348.460510 264.083374,342.594086 
	C260.346039,342.594086 257.127747,342.594086 253.458740,342.715729 
	C250.893112,342.837372 248.778229,342.837372 246.145142,342.837372 
	C246.145142,348.100800 246.145142,353.286316 246.145142,359.028839 
	C243.069641,359.028839 240.486618,359.028839 237.450623,359.099182 
	C236.493179,358.437653 235.553696,357.708710 235.548767,356.973480 
	C235.460007,343.757599 235.484222,330.540985 235.484222,316.854095 
	C237.592194,316.720398 239.347321,316.609070 241.968185,316.514160 
	C245.320724,316.356659 246.347565,317.369232 246.243149,319.992554 
	C246.061401,324.558350 246.192612,329.136627 246.192612,333.705475 
	C252.450089,333.705475 257.999390,333.705475 263.939026,333.705475 
	C263.939026,329.138641 263.763306,324.853973 264.034485,320.597778 
	C264.129211,319.111389 265.325592,317.695160 266.018860,316.246887 
z"/>
<path fill="#EEEEF4" opacity="1.000000" stroke="none" 
	d="
M253.409851,395.118164 
	C249.848145,395.188629 246.701492,395.188629 241.819092,395.188629 
	C244.293076,391.896851 245.917435,389.654144 247.629150,387.480225 
	C249.452225,385.164856 251.358002,382.914581 253.755142,379.993042 
	C249.891403,379.636658 246.712738,379.343445 243.534088,379.050262 
	C243.537201,378.351410 243.540314,377.652557 243.543442,376.953705 
	C246.419724,376.869263 249.296005,376.784790 252.600098,376.610718 
	C254.794266,376.701447 256.560608,376.881744 259.628510,377.194916 
	C255.524368,382.356720 251.998123,386.791748 248.139908,391.644257 
	C251.850876,392.019073 255.379120,392.375427 258.907379,392.731812 
	C258.878296,393.378967 258.849213,394.026123 258.820160,394.673279 
	C257.155060,394.798096 255.489990,394.922882 253.409851,395.118164 
z"/>
<path fill="#F1F1F6" opacity="1.000000" stroke="none" 
	d="
M271.720551,376.720398 
	C275.048370,376.593842 278.082123,376.652588 281.562439,376.618103 
	C283.271332,376.691132 284.533661,376.857452 287.086761,377.193787 
	C283.051086,382.310059 279.507812,386.802063 275.709839,391.617004 
	C279.511597,392.083130 282.909607,392.499786 286.307587,392.916412 
	C286.216461,393.625854 286.125305,394.335266 286.034180,395.044708 
	C283.322205,395.044708 280.610260,395.044708 277.446899,395.115234 
	C275.043640,395.085236 273.091827,394.984741 269.259125,394.787415 
	C273.641113,389.375458 277.303925,384.851715 281.635620,379.501862 
	C278.184784,379.501862 275.747986,379.706299 273.383453,379.382660 
	C272.632202,379.279846 272.073364,377.771088 271.720551,376.720398 
z"/>
<path fill="#00F9F7" opacity="1.000000" stroke="none" 
	d="
M224.407455,359.101685 
	C218.957520,359.996765 216.050400,357.401733 213.913910,353.184967 
	C212.798508,350.983490 211.175491,349.039185 209.496002,346.776550 
	C208.469574,345.341034 207.728867,344.107697 207.030548,342.944977 
	C199.942261,346.386017 200.964874,352.679596 201.001175,359.030426 
	C198.103790,359.030426 195.503281,359.030426 192.449493,359.101929 
	C191.380951,358.221588 190.239807,357.274994 190.230194,356.317047 
	C190.108475,344.172180 190.070465,332.024292 190.278015,319.881744 
	C190.297562,318.737671 192.123154,317.624512 193.976715,316.505219 
	C196.775894,316.615051 198.708603,316.716675 201.168869,316.846039 
	C201.168869,322.625549 201.168869,328.123352 201.168869,334.741089 
	C204.695648,330.756409 207.311172,327.587952 210.158798,324.644043 
	C212.987106,321.720123 216.048889,319.022064 219.008270,316.224945 
	C222.126343,316.408417 225.244415,316.591919 229.348892,316.833435 
	C223.970856,322.963440 219.050797,328.571411 214.099274,334.215271 
	C219.619324,342.406708 224.953751,350.322723 230.822723,359.031952 
	C228.067917,359.031952 226.442856,359.031952 224.407455,359.101685 
z"/>
<path fill="#151856" opacity="1.000000" stroke="none" 
	d="
M219.006378,315.740723 
	C216.048889,319.022064 212.987106,321.720123 210.158798,324.644043 
	C207.311172,327.587952 204.695648,330.756409 201.168869,334.741089 
	C201.168869,328.123352 201.168869,322.625549 201.168869,316.846039 
	C198.708603,316.716675 196.775894,316.615051 194.398758,316.371399 
	C194.314362,307.385925 194.674408,298.542542 195.050568,289.263123 
	C202.820908,289.933746 210.562332,290.652740 218.596100,288.077148 
	C218.999664,297.144379 219.002090,306.200470 219.006378,315.740723 
z"/>
<path fill="#1A1F6B" opacity="1.000000" stroke="none" 
	d="
M266.013672,315.871094 
	C265.325592,317.695160 264.129211,319.111389 264.034485,320.597778 
	C263.763306,324.853973 263.939026,329.138641 263.939026,333.705475 
	C257.999390,333.705475 252.450089,333.705475 246.192612,333.705475 
	C246.192612,329.136627 246.061401,324.558350 246.243149,319.992554 
	C246.347565,317.369232 245.320724,316.356659 242.391266,316.387573 
	C241.966873,304.801605 242.007111,293.358673 241.976059,281.915894 
	C241.972107,280.458740 241.595795,279.002533 241.112518,277.225281 
	C249.972763,269.917572 259.112457,262.930511 268.650208,256.221619 
	C269.361908,259.915649 269.675507,263.331482 269.989136,266.747345 
	C266.658447,265.179810 264.273102,266.667206 261.709656,269.589050 
	C258.346252,272.547516 255.471497,275.075134 251.910812,278.205872 
	C257.917969,279.862793 262.549866,281.140411 267.181793,282.417999 
	C267.035553,291.327057 266.928650,300.237091 266.714325,309.144501 
	C266.663300,311.265869 266.253357,313.378601 266.013672,315.871094 
z"/>
<path fill="#F0F0F5" opacity="1.000000" stroke="none" 
	d="
M224.437317,395.115448 
	C221.384262,395.186035 218.770645,395.186035 216.157028,395.186035 
	C215.762741,394.754456 215.368454,394.322876 214.974182,393.891296 
	C218.641235,389.373505 222.308289,384.855713 226.392639,379.823853 
	C222.409790,379.556183 219.170425,379.338501 215.931076,379.120819 
	C215.941666,378.540131 215.952255,377.959412 215.962845,377.378723 
	C218.348419,377.236359 220.734009,377.093994 223.558777,376.882874 
	C226.274826,376.932739 228.551666,377.051392 232.147232,377.238770 
	C227.980057,382.358795 224.415497,386.738434 220.460281,391.598053 
	C224.338760,392.038422 227.791183,392.430389 231.243622,392.822357 
	C231.159805,393.563202 231.075989,394.304016 230.992172,395.044861 
	C228.953690,395.044861 226.915222,395.044861 224.437317,395.115448 
z"/>
<path fill="#0AC9F8" opacity="1.000000" stroke="none" 
	d="
M332.651215,275.504059 
	C329.668243,274.170258 326.935425,272.710785 324.291809,271.104492 
	C322.498474,270.014862 320.830322,268.719238 319.159454,266.875641 
	C320.598999,264.101135 321.985291,261.966705 323.788513,259.872925 
	C329.109131,261.605408 334.012817,263.297241 338.916504,264.989075 
	C336.924133,268.431335 334.931763,271.873596 332.651215,275.504059 
z"/>
<path fill="#06DDF9" opacity="1.000000" stroke="none" 
	d="
M339.061218,264.641296 
	C334.012817,263.297241 329.109131,261.605408 323.903503,259.471802 
	C324.091949,256.350098 324.582397,253.670181 325.072845,250.990265 
	C330.230621,252.677322 335.388397,254.364380 340.957092,256.095215 
	C340.647308,258.857178 339.926636,261.575348 339.061218,264.641296 
z"/>
<path fill="#32309F" opacity="1.000000" stroke="none" 
	d="
M374.485229,280.480713 
	C374.518219,280.464752 374.452271,280.496704 374.485229,280.480713 
z"/>
<path fill="#18195E" opacity="1.000000" stroke="none" 
	d="
M243.010986,136.303635 
	C244.186539,137.711273 245.362106,139.118912 246.672394,141.054001 
	C245.877579,142.413528 244.948059,143.245605 243.698166,144.178818 
	C234.605255,151.241440 225.832718,158.202942 217.045532,164.685669 
	C217.024704,153.079056 217.018539,141.951202 217.443329,130.804855 
	C219.860153,131.057510 221.846024,131.328659 224.166611,131.736496 
	C227.664993,132.557312 230.828644,133.241455 234.305252,134.120621 
	C237.415787,134.978317 240.213394,135.640976 243.010986,136.303635 
z"/>
<path fill="#0AC9F8" opacity="1.000000" stroke="none" 
	d="
M269.930664,124.324554 
	C270.465698,123.987389 270.792145,123.921928 271.676117,124.122520 
	C272.489655,127.114410 272.608826,129.862305 273.043427,132.559341 
	C273.412811,134.851593 274.145996,137.085220 274.436096,139.577515 
	C271.090668,141.505402 268.027283,143.200577 264.629089,144.949356 
	C262.858612,145.611938 261.422943,146.220917 259.989685,146.378357 
	C259.628174,141.540497 259.264252,137.154190 258.900330,132.767868 
	C262.507568,130.043991 266.114838,127.320122 269.930664,124.324554 
z"/>
<path fill="#08D4F8" opacity="1.000000" stroke="none" 
	d="
M258.571106,132.879517 
	C259.264252,137.154190 259.628174,141.540497 259.701782,146.585999 
	C254.665451,149.651764 249.919403,152.058365 245.084412,154.036987 
	C244.669846,150.431915 244.344193,147.254807 244.018539,144.077682 
	C244.948059,143.245605 245.877579,142.413528 246.966309,141.309479 
	C250.830948,138.355377 254.536407,135.673264 258.571106,132.879517 
z"/>
<path fill="#129DF6" opacity="1.000000" stroke="none" 
	d="
M243.096100,136.025024 
	C240.213394,135.640976 237.415787,134.978317 234.308075,133.659592 
	C233.994553,128.080338 233.991135,123.157135 233.987732,118.233932 
	C234.421722,118.240929 234.855728,118.247925 235.616379,118.251205 
	C238.446304,119.002686 240.949585,119.757881 243.714935,121.138397 
	C243.975525,126.148651 243.974045,130.533585 243.972565,134.918518 
	C243.708771,135.194473 243.444992,135.470444 243.096100,136.025024 
z"/>
<path fill="#158EF4" opacity="1.000000" stroke="none" 
	d="
M244.311844,134.903351 
	C243.974045,130.533585 243.975525,126.148651 244.001129,121.348206 
	C246.089279,121.287201 248.153336,121.641716 250.608124,121.986389 
	C252.789902,122.685822 254.580917,123.395081 256.939117,124.328957 
	C252.573685,128.080215 248.612411,131.484192 244.311844,134.903351 
z"/>
<path fill="#0BC2F7" opacity="1.000000" stroke="none" 
	d="
M203.985229,114.282471 
	C207.155548,114.360222 210.325882,114.437973 213.901550,114.477386 
	C214.306915,114.439049 214.638641,114.746597 214.817535,115.352173 
	C215.003647,120.603653 215.010864,125.249550 214.597626,129.940689 
	C210.780807,129.603561 207.384430,129.221191 203.992188,128.384048 
	C203.992645,123.380325 203.988937,118.831390 203.985229,114.282471 
z"/>
<path fill="#0EB6F8" opacity="1.000000" stroke="none" 
	d="
M215.018097,129.895447 
	C215.010864,125.249550 215.003647,120.603653 214.993561,115.494209 
	C218.058380,115.363808 221.126038,115.696953 224.591461,116.598366 
	C224.603424,121.977692 224.217667,126.788750 223.831894,131.599823 
	C221.846024,131.328659 219.860153,131.057510 217.217712,130.642975 
	C216.046783,130.298218 215.532440,130.096832 215.018097,129.895447 
z"/>
<path fill="#10AAF7" opacity="1.000000" stroke="none" 
	d="
M224.166611,131.736481 
	C224.217667,126.788750 224.603424,121.977692 224.986053,116.720406 
	C227.738785,116.847252 230.494629,117.420334 233.619110,118.113670 
	C233.991135,123.157135 233.994553,128.080338 233.995132,133.464569 
	C230.828644,133.241455 227.664993,132.557312 224.166611,131.736481 
z"/>
<path fill="#139AF8" opacity="1.000000" stroke="none" 
	d="
M322.499207,117.384293 
	C323.794281,118.162773 324.742676,118.792892 325.857544,120.127121 
	C325.581055,127.767960 325.138123,134.704697 324.456482,141.376862 
	C319.809967,137.581802 315.402161,134.051315 311.192078,130.219528 
	C311.922791,124.680359 312.455750,119.442497 312.988708,114.204636 
	C316.043335,115.215065 319.097931,116.225494 322.499207,117.384293 
z"/>
<path fill="#11A6F8" opacity="1.000000" stroke="none" 
	d="
M312.581848,114.096626 
	C312.455750,119.442497 311.922791,124.680359 310.824982,130.134171 
	C310.029358,130.250626 309.798584,130.151138 309.492981,130.045563 
	C309.418152,130.039490 309.111084,129.971130 308.653870,129.993256 
	C305.460938,129.941940 302.725220,129.868500 299.991760,129.340515 
	C299.992950,123.640984 299.991821,118.395996 299.990662,113.151009 
	C301.380524,113.043556 302.770355,112.936111 304.576294,112.779922 
	C307.386597,113.150330 309.780823,113.569481 312.581848,114.096626 
z"/>
<path fill="#0CBCF8" opacity="1.000000" stroke="none" 
	d="
M274.718201,139.344788 
	C274.145996,137.085220 273.412811,134.851593 273.043427,132.559341 
	C272.608826,129.862305 272.489655,127.114410 271.922485,124.073273 
	C276.191559,121.214638 280.771820,118.671295 285.670532,115.954514 
	C286.155182,115.810890 286.321381,115.840714 286.741211,116.379379 
	C286.991882,122.240883 286.988983,127.593552 286.855896,133.128754 
	C286.725708,133.311279 286.535767,133.717438 286.191071,133.770844 
	C282.136993,135.664429 278.427612,137.504608 274.718201,139.344788 
z"/>
<path fill="#0FB1F8" opacity="1.000000" stroke="none" 
	d="
M286.986053,132.946228 
	C286.988983,127.593552 286.991882,122.240883 286.991669,116.416962 
	C291.042145,114.984924 295.095764,114.024155 299.570007,113.107193 
	C299.991821,118.395996 299.992950,123.640984 299.606201,129.438629 
	C295.140930,130.976257 291.063477,131.961243 286.986053,132.946228 
z"/>
<path fill="#08D4F8" opacity="1.000000" stroke="none" 
	d="
M203.584763,114.228745 
	C203.988937,118.831390 203.992645,123.380325 203.616974,128.465668 
	C199.214691,130.796219 195.191788,132.590332 191.168884,134.384460 
	C190.775360,128.971024 190.381821,123.557579 189.987137,117.693451 
	C192.823685,116.433762 195.661392,115.624771 198.833710,114.677208 
	C200.506989,114.417435 201.845642,114.296234 203.584763,114.228745 
z"/>
<path fill="#01FAF9" opacity="1.000000" stroke="none" 
	d="
M341.879395,246.636688 
	C336.186615,245.378098 330.541077,243.704071 324.397980,241.646454 
	C316.272797,225.506134 308.645111,209.749374 300.975647,193.638336 
	C298.934021,189.297882 296.992340,185.281204 294.921417,181.332321 
	C291.338898,174.501129 287.676208,167.711975 284.144531,160.609802 
	C285.160400,160.545578 286.078857,160.776688 287.165161,161.295380 
	C293.852875,169.400894 300.372803,177.218796 307.001099,185.359802 
	C314.006683,194.691757 320.903961,203.700638 327.801208,212.709518 
	C333.915741,222.219696 340.086945,231.705139 341.646973,243.276566 
	C341.778595,244.252945 341.835205,245.239426 341.879395,246.636688 
z"/>
<path fill="#158EF7" opacity="1.000000" stroke="none" 
	d="
M324.695190,141.641418 
	C325.138123,134.704697 325.581055,127.767960 326.036987,120.353531 
	C328.118683,121.495071 330.187317,123.114311 332.534546,124.896713 
	C344.677307,140.885925 343.141907,158.256668 338.692993,175.969193 
	C336.761414,183.659439 334.829559,191.349884 332.964417,199.056335 
	C332.422821,201.294174 331.763214,202.686981 329.139343,199.896912 
	C327.615082,198.193039 326.656952,196.786011 325.400574,195.735672 
	C320.409332,191.563049 318.933197,186.813446 321.490265,180.498596 
	C323.147949,176.404846 323.799530,171.872864 324.645294,167.487732 
	C326.303253,158.891724 328.610016,150.261719 324.695190,141.641418 
z"/>
<path fill="#212283" opacity="1.000000" stroke="none" 
	d="
M324.456482,141.376862 
	C328.610016,150.261719 326.303253,158.891724 324.645294,167.487732 
	C323.799530,171.872864 323.147949,176.404846 321.490265,180.498596 
	C318.933197,186.813446 320.409332,191.563049 325.400574,195.735672 
	C326.656952,196.786011 327.615082,198.193039 328.848206,199.743423 
	C328.623047,203.936966 328.260040,207.823242 327.849121,212.209503 
	C320.903961,203.700638 314.006683,194.691757 307.381561,185.226288 
	C308.102448,182.940659 308.920929,181.115906 308.942139,179.281921 
	C309.130371,163.001572 309.177460,146.719559 309.361969,130.357361 
	C309.457764,130.276657 309.567780,130.051651 309.567780,130.051651 
	C309.798584,130.151138 310.029358,130.250626 310.627258,130.435471 
	C315.402161,134.051315 319.809967,137.581802 324.456482,141.376862 
z"/>
<path fill="#20217F" opacity="1.000000" stroke="none" 
	d="
M301.017426,193.992630 
	C308.645111,209.749374 316.272797,225.506134 324.021820,241.625031 
	C324.401917,244.716400 324.660645,247.445633 324.996094,250.582550 
	C324.582397,253.670181 324.091949,256.350098 323.486572,259.431152 
	C321.985291,261.966705 320.598999,264.101135 319.072418,266.528809 
	C315.994751,268.666931 313.057343,270.511841 309.844574,272.585876 
	C306.339813,272.854736 303.110382,272.894501 299.437744,272.392822 
	C298.996704,253.777893 298.998993,235.704407 299.000977,217.630920 
	C299.001648,211.492279 298.854584,205.347900 299.094238,199.218628 
	C299.163239,197.454269 300.345581,195.733429 301.017426,193.992630 
z"/>
<path fill="#18185D" opacity="1.000000" stroke="none" 
	d="
M216.358948,270.878662 
	C215.995773,261.429321 215.950012,251.999100 216.043564,242.570251 
	C216.060898,240.823746 216.640152,239.082809 217.542236,237.270599 
	C219.926956,239.317780 221.729477,241.433655 223.531998,243.549515 
	C223.956726,243.317398 224.381439,243.085281 224.806168,242.853149 
	C222.575699,238.840057 220.345230,234.826950 218.076965,230.455093 
	C217.258163,228.098083 216.477127,226.099854 216.092987,223.970856 
	C216.992676,222.376785 217.925964,220.915390 217.932510,219.449875 
	C218.008118,202.535629 217.943329,185.620758 218.149567,168.462143 
	C225.921326,164.473083 233.459396,160.727921 240.998413,157.414642 
	C241.361069,169.300156 241.722778,180.753784 241.992493,192.565323 
	C239.509537,197.161621 239.607498,201.463608 241.231949,206.096527 
	C240.595337,208.295822 240.048843,210.210663 240.039932,212.128006 
	C239.966141,227.997345 239.991852,243.867126 239.987442,259.736786 
	C232.233093,263.457275 224.478760,267.177795 216.358948,270.878662 
z"/>
<path fill="#1D1D71" opacity="1.000000" stroke="none" 
	d="
M286.997314,161.007797 
	C286.078857,160.776688 285.160400,160.545578 283.974487,160.998459 
	C283.471893,163.147125 283.034729,164.611389 283.031860,166.076508 
	C282.988495,188.058945 282.976074,210.041611 283.052338,232.023880 
	C283.058472,233.793259 283.766937,235.560226 284.149017,237.328308 
	C277.712158,240.646683 271.275299,243.965057 264.461304,246.908508 
	C264.056091,235.816528 264.091187,225.098679 263.948578,214.383179 
	C263.918640,212.132828 263.235199,209.891174 262.941772,207.309357 
	C265.926880,202.488419 266.052704,197.826248 264.199219,192.776184 
	C264.912659,190.669785 265.684052,188.815018 265.729614,186.942596 
	C265.892151,180.261703 265.922699,173.572479 265.786652,166.890808 
	C265.637268,159.556580 265.248413,152.227234 264.963928,144.895752 
	C268.027283,143.200577 271.090668,141.505402 274.436127,139.577515 
	C278.427612,137.504608 282.136993,135.664429 286.514038,134.085983 
	C287.120239,143.234406 287.058777,152.121109 286.997314,161.007797 
z"/>
<path fill="#1E1F77" opacity="1.000000" stroke="none" 
	d="
M284.500519,237.237427 
	C283.766937,235.560226 283.058472,233.793259 283.052338,232.023880 
	C282.976074,210.041611 282.988495,188.058945 283.031860,166.076508 
	C283.034729,164.611389 283.471893,163.147125 283.877136,161.293823 
	C287.676208,167.711975 291.338898,174.501129 294.921417,181.332321 
	C296.992340,185.281204 298.934021,189.297882 300.975647,193.638336 
	C300.345581,195.733429 299.163239,197.454269 299.094238,199.218628 
	C298.854584,205.347900 299.001648,211.492279 299.000977,217.630920 
	C298.998993,235.704407 298.996704,253.777893 298.992859,272.303070 
	C295.930176,272.332977 292.869141,271.911224 289.377747,271.437134 
	C288.364441,271.221283 287.781555,271.057709 287.046082,270.266510 
	C286.914429,260.052979 286.935272,250.467056 286.956116,240.881134 
	C289.625427,238.585205 292.294739,236.289276 294.964050,233.993362 
	C294.776154,233.594727 294.588226,233.196106 294.400330,232.797470 
	C291.217560,234.247162 288.034790,235.696838 284.500519,237.237427 
z"/>
<path fill="#1A1B67" opacity="1.000000" stroke="none" 
	d="
M262.852875,207.645523 
	C263.235199,209.891174 263.918640,212.132828 263.948578,214.383179 
	C264.091187,225.098679 264.056091,235.816528 264.119019,247.039581 
	C256.316681,251.559586 248.479538,255.573578 240.314926,259.662170 
	C239.991852,243.867126 239.966141,227.997345 240.039932,212.128006 
	C240.048843,210.210663 240.595337,208.295822 241.443268,206.327637 
	C243.632034,207.654465 245.270203,209.033447 247.097992,210.616013 
	C247.993607,211.033142 248.699600,211.246704 249.766937,211.643967 
	C251.742737,211.802689 253.357208,211.777695 255.303726,211.742569 
	C257.112457,210.863281 258.589142,209.994141 260.372498,209.040237 
	C261.403778,208.518829 262.128326,208.082184 262.852875,207.645523 
z"/>
<path fill="#1E1E75" opacity="1.000000" stroke="none" 
	d="
M286.648071,241.019150 
	C286.935272,250.467056 286.914429,260.052979 286.843689,270.158752 
	C281.436523,269.468384 276.079224,268.258179 270.355530,266.897644 
	C269.675507,263.331482 269.361908,259.915649 268.965363,256.075958 
	C274.701630,250.820465 280.520813,245.988815 286.648071,241.019150 
z"/>
<path fill="#08D2F9" opacity="1.000000" stroke="none" 
	d="
M193.020294,205.364243 
	C193.612732,203.146271 194.667374,201.300156 194.924011,199.349106 
	C195.438004,195.441452 195.515457,191.476349 196.225113,187.359741 
	C199.858200,193.657288 203.039291,200.130066 206.116211,207.026093 
	C205.676605,209.526215 205.507874,211.649109 204.951401,213.664948 
	C204.529678,215.192719 203.613693,216.584045 202.917633,218.036087 
	C199.652267,213.920273 196.386902,209.804459 193.020294,205.364243 
z"/>
<path fill="#0BBEF4" opacity="1.000000" stroke="none" 
	d="
M203.061569,218.341614 
	C203.613693,216.584045 204.529678,215.192719 204.951401,213.664948 
	C205.507874,211.649109 205.676605,209.526215 206.382919,207.256927 
	C209.734573,212.743561 212.715332,218.422592 215.696075,224.101608 
	C216.477127,226.099854 217.258163,228.098083 217.936386,230.760010 
	C217.178909,232.306763 216.524231,233.189819 215.869568,234.072876 
	C211.648224,228.930969 207.426849,223.789047 203.061569,218.341614 
z"/>
<path fill="#0FA8EA" opacity="1.000000" stroke="none" 
	d="
M216.010681,234.367188 
	C216.524231,233.189819 217.178909,232.306763 217.974152,231.118774 
	C220.345230,234.826950 222.575699,238.840057 224.806168,242.853149 
	C224.381439,243.085281 223.956726,243.317398 223.531998,243.549515 
	C221.729477,241.433655 219.926956,239.317780 217.893127,236.994171 
	C217.158478,236.078110 216.655136,235.369812 216.010681,234.367188 
z"/>
<path fill="#151654" opacity="1.000000" stroke="none" 
	d="
M216.092972,223.970856 
	C212.715332,218.422592 209.734573,212.743561 206.487106,206.833679 
	C203.039291,200.130066 199.858200,193.657288 196.399628,186.961670 
	C193.712631,181.934128 191.303101,177.129471 188.659073,172.094482 
	C186.965851,164.586594 184.981033,157.363846 184.215088,150.014069 
	C183.603867,144.148941 186.646759,139.106964 191.008087,134.668701 
	C195.191788,132.590332 199.214691,130.796219 203.612823,128.920471 
	C207.384430,129.221191 210.780807,129.603561 214.597641,129.940689 
	C215.532440,130.096832 216.046783,130.298218 216.786743,130.661469 
	C217.018539,141.951202 217.024704,153.079056 216.870911,164.972900 
	C215.025070,167.163666 213.339188,168.588440 211.653305,170.013214 
	C211.904663,170.349228 212.156006,170.685257 212.407364,171.021271 
	C214.243530,170.249542 216.079697,169.477798 217.915863,168.706055 
	C217.943329,185.620758 218.008118,202.535629 217.932510,219.449875 
	C217.925964,220.915390 216.992676,222.376785 216.092972,223.970856 
z"/>
<path fill="#168AF6" opacity="1.000000" stroke="none" 
	d="
M267.586273,282.497589 
	C262.549866,281.140411 257.917969,279.862793 251.910812,278.205872 
	C255.471497,275.075134 258.346252,272.547516 261.527161,269.874023 
	C267.803467,272.511749 273.788483,275.264008 279.739716,278.087463 
	C286.117188,281.113098 292.462860,284.205811 298.914185,287.596985 
	C296.649597,287.810394 294.293213,287.696075 291.495667,287.566528 
	C283.366638,285.893280 275.678680,284.235229 267.586273,282.497589 
z"/>
<path fill="#05DFF4" opacity="1.000000" stroke="none" 
	d="
M218.149567,168.462143 
	C216.079697,169.477798 214.243530,170.249542 212.407364,171.021271 
	C212.156006,170.685257 211.904663,170.349228 211.653305,170.013214 
	C213.339188,168.588440 215.025070,167.163666 216.885559,165.451660 
	C225.832718,158.202942 234.605255,151.241440 243.698166,144.178818 
	C244.344193,147.254807 244.669846,150.431915 244.854248,154.237579 
	C243.474503,155.571671 242.235977,156.277222 240.997452,156.982758 
	C233.459396,160.727921 225.921326,164.473083 218.149567,168.462143 
z"/>
<path fill="#1B1B68" opacity="1.000000" stroke="none" 
	d="
M240.998413,157.414642 
	C242.235977,156.277222 243.474503,155.571671 244.943176,154.665527 
	C249.919403,152.058365 254.665451,149.651764 259.699402,147.037521 
	C261.422943,146.220917 262.858612,145.611938 264.629089,144.949356 
	C265.248413,152.227234 265.637268,159.556580 265.786652,166.890808 
	C265.922699,173.572479 265.892151,180.261703 265.729614,186.942596 
	C265.684052,188.815018 264.912659,190.669785 263.955383,192.596191 
	C262.441956,191.706604 261.447357,190.753464 260.229980,189.533127 
	C258.331390,188.581482 256.655640,187.897049 254.590424,187.103027 
	C253.131226,187.040329 252.061447,187.087204 250.671051,187.082825 
	C249.190857,187.511246 248.031296,187.990891 246.559479,188.612122 
	C244.859665,189.904938 243.472076,191.056183 242.084488,192.207428 
	C241.722778,180.753784 241.361069,169.300156 240.998413,157.414642 
z"/>
<path fill="#1F207B" opacity="1.000000" stroke="none" 
	d="
M287.165131,161.295380 
	C287.058777,152.121109 287.120239,143.234406 286.858704,134.032578 
	C286.535767,133.717438 286.725708,133.311279 286.855896,133.128754 
	C291.063477,131.961243 295.140930,130.976257 299.603912,129.893173 
	C302.725220,129.868500 305.460938,129.941940 308.684875,130.112564 
	C309.173096,130.209747 309.266174,130.438049 309.266174,130.438049 
	C309.177460,146.719559 309.130371,163.001572 308.942139,179.281921 
	C308.920929,181.115906 308.102448,182.940659 307.273193,184.903198 
	C300.372803,177.218796 293.852875,169.400894 287.165131,161.295380 
z"/>
<path fill="#139AF8" opacity="1.000000" stroke="none" 
	d="
M309.361969,130.357361 
	C309.266174,130.438049 309.173096,130.209747 309.142090,130.090439 
	C309.111084,129.971130 309.418152,130.039490 309.492981,130.045563 
	C309.567780,130.051651 309.457764,130.276657 309.361969,130.357361 
z"/>
<path fill="#05E2F6" opacity="1.000000" stroke="none" 
	d="
M241.992493,192.565338 
	C243.472076,191.056183 244.859665,189.904938 246.638611,189.062210 
	C246.989456,196.384628 246.948914,203.398544 246.908371,210.412445 
	C245.270203,209.033447 243.632034,207.654465 241.782562,206.044357 
	C239.607498,201.463608 239.509537,197.161621 241.992493,192.565338 
z"/>
<path fill="#1496F5" opacity="1.000000" stroke="none" 
	d="
M260.452759,189.800339 
	C261.447357,190.753464 262.441956,191.706604 263.680389,192.839722 
	C266.052704,197.826248 265.926880,202.488419 262.941772,207.309357 
	C262.128326,208.082184 261.403778,208.518829 260.201630,208.649445 
	C259.966949,202.162384 260.209869,195.981354 260.452759,189.800339 
z"/>
<path fill="#0CC1F9" opacity="1.000000" stroke="none" 
	d="
M250.991684,187.134064 
	C252.061447,187.087204 253.131226,187.040329 254.594818,187.557404 
	C254.982986,195.998459 254.977325,203.875595 254.971664,211.752716 
	C253.357208,211.777695 251.742737,211.802689 250.101196,211.315826 
	C250.379990,202.914017 250.685837,195.024048 250.991684,187.134064 
z"/>
<path fill="#0FACF8" opacity="1.000000" stroke="none" 
	d="
M255.303726,211.742569 
	C254.977325,203.875595 254.982986,195.998459 254.984268,187.666977 
	C256.655640,187.897049 258.331390,188.581482 260.229980,189.533127 
	C260.209869,195.981354 259.966949,202.162384 259.894897,208.734192 
	C258.589142,209.994141 257.112457,210.863281 255.303726,211.742569 
z"/>
<path fill="#09D1F9" opacity="1.000000" stroke="none" 
	d="
M250.671051,187.082825 
	C250.685837,195.024048 250.379990,202.914017 249.739853,211.132126 
	C248.699600,211.246704 247.993607,211.033142 247.097992,210.616013 
	C246.948914,203.398544 246.989456,196.384628 246.950851,188.920624 
	C248.031296,187.990891 249.190857,187.511246 250.671051,187.082825 
z"/>
</svg>